<?xml version="1.0" standalone="no"?>
<!DOCTYPE svg PUBLIC "-//W3C//DTD SVG 20010904//EN"
 "http://www.w3.org/TR/2001/REC-SVG-20010904/DTD/svg10.dtd">
<svg version="1.0" xmlns="http://www.w3.org/2000/svg"
 width="512.000000pt" height="512.000000pt" viewBox="0 0 512.000000 512.000000"
 preserveAspectRatio="xMidYMid meet">
<metadata>
Created by potrace 1.14, written by Peter Selinger 2001-2017
</metadata>
<g transform="translate(0.000000,512.000000) scale(0.100000,-0.100000)"
fill="#000000" stroke="none">
<path d="M794 4886 c-38 -17 -45 -33 -53 -121 l-6 -70 -95 -5 c-103 -5 -136
-18 -150 -56 -6 -14 -55 -595 -110 -1292 -55 -697 -116 -1472 -136 -1722 -19
-250 -50 -637 -68 -860 -18 -223 -30 -415 -28 -427 6 -32 47 -69 83 -77 18 -3
1069 -6 2338 -5 1759 0 2314 3 2341 12 20 7 41 25 52 44 21 34 38 -191 -272
3581 -33 404 -65 742 -70 753 -19 35 -64 49 -158 49 -101 0 -102 0 -102 88 0
57 -22 97 -61 111 -23 8 -518 11 -1753 11 -1422 -1 -1726 -3 -1752 -14z m2922
-1646 c104 -105 193 -200 198 -210 20 -45 -35 -99 -87 -86 -14 3 -92 75 -177
163 l-152 156 -161 -161 c-141 -141 -166 -162 -194 -162 -41 0 -77 42 -68 80
4 14 86 105 198 218 167 167 196 192 223 192 27 0 55 -24 220 -190z m-2221
-275 c22 -21 25 -33 25 -94 0 -203 71 -464 175 -641 141 -240 351 -410 580
-471 111 -29 279 -29 390 0 357 95 640 431 730 869 9 42 20 133 24 201 8 112
11 127 31 143 29 23 62 23 91 -1 22 -18 23 -24 21 -117 -16 -517 -295 -982
-705 -1174 -133 -62 -230 -84 -382 -84 -207 0 -374 53 -548 173 -86 60 -224
198 -289 291 -171 241 -271 579 -259 873 1 26 37 57 66 57 14 0 37 -11 50 -25z"/>
</g>
</svg>
